<svg width="30" height="31" viewBox="0 0 30 31" fill="none" xmlns="http://www.w3.org/2000/svg">
<path d="M10.6795 13.6734C10.5442 13.4222 10.2504 13.3398 10.0233 13.4895L4.44656 17.1628C4.3016 17.2583 4.21275 17.4311 4.21275 17.6176C4.21275 17.8042 4.3016 17.977 4.4465 18.0724L10.0232 21.7458C10.1 21.7964 10.1844 21.8205 10.2678 21.8205C10.4309 21.8205 10.59 21.7281 10.6795 21.5619C10.8148 21.3107 10.7403 20.9858 10.5132 20.8362L5.62697 17.6176L10.5132 14.3991C10.7404 14.2495 10.8149 13.9246 10.6795 13.6734Z" fill="white"/>
<path d="M19.3205 21.5619C19.4101 21.7282 19.5691 21.8205 19.7322 21.8205C19.8156 21.8205 19.8999 21.7964 19.9767 21.7458L25.5535 18.0724C25.6984 17.9769 25.7872 17.8042 25.7872 17.6176C25.7872 17.4311 25.6984 17.2583 25.5535 17.1628L19.9767 13.4895C19.7496 13.3399 19.4557 13.4222 19.3205 13.6734C19.1852 13.9246 19.2597 14.2495 19.4868 14.3991L24.373 17.6176L19.4868 20.8362C19.2596 20.9858 19.1851 21.3107 19.3205 21.5619Z" fill="white"/>
<path d="M16.8332 13.6492L12.3719 20.9959C12.2246 21.2385 12.283 21.5675 12.5025 21.7305C12.5844 21.7914 12.6772 21.8205 12.769 21.8205C12.9231 21.8205 13.0744 21.7382 13.1668 21.5861L17.6281 14.2394C17.7754 13.9967 17.717 13.6678 17.4975 13.5047C17.2779 13.3418 16.9805 13.4065 16.8332 13.6492Z" fill="white"/>
<path d="M29.5213 0.5H0.478723C0.214277 0.5 0 0.737035 0 1.02941V29.9706C0 30.263 0.214277 30.5 0.478723 30.5H29.5213C29.7857 30.5 30 30.263 30 29.9706V24.3235C30 24.0312 29.7857 23.7941 29.5213 23.7941C29.2568 23.7941 29.0426 24.0312 29.0426 24.3235V29.4412H0.957447V5.79412H29.0426V22.2059C29.0426 22.4983 29.2568 22.7353 29.5213 22.7353C29.7857 22.7353 30 22.4983 30 22.2059V1.02941C30 0.737035 29.7857 0.5 29.5213 0.5ZM0.957447 1.55882H18.6702V4.73529H0.957447V1.55882ZM19.6277 4.73529V1.55882H29.0426V4.73529H19.6277Z" fill="white"/>
<path d="M24.3511 2.58235C24.0695 2.58235 23.8404 2.83569 23.8404 3.14706C23.8404 3.45842 24.0695 3.71176 24.3511 3.71176C24.6326 3.71176 24.8617 3.45842 24.8617 3.14706C24.8617 2.83569 24.6326 2.58235 24.3511 2.58235Z" fill="white"/>
<path d="M21.734 2.58235C21.4525 2.58235 21.2234 2.83569 21.2234 3.14706C21.2234 3.45842 21.4525 3.71176 21.734 3.71176C22.0156 3.71176 22.2447 3.45842 22.2447 3.14706C22.2447 2.83569 22.0156 2.58235 21.734 2.58235Z" fill="white"/>
<path d="M26.9681 2.58235C26.6865 2.58235 26.4575 2.83569 26.4575 3.14706C26.4575 3.45842 26.6865 3.71176 26.9681 3.71176C27.2496 3.71176 27.4787 3.45842 27.4787 3.14706C27.4787 2.83569 27.2496 2.58235 26.9681 2.58235Z" fill="white"/>
</svg>
