<svg width="40" height="31" viewBox="0 0 40 31" fill="none" xmlns="http://www.w3.org/2000/svg">
<path d="M10 8.57713H5V12.0386H10V8.57713ZM8.75 10.8848H6.25V9.73097H8.75V10.8848ZM10 13.1925H5V16.654H10V13.1925ZM8.75 15.5001H6.25V14.3463H8.75V15.5001ZM7.5 17.8078C5.42875 17.8078 3.75 19.3574 3.75 21.2693C3.75 23.1812 5.42875 24.7308 7.5 24.7308C9.57125 24.7308 11.25 23.1812 11.25 21.2693C11.25 19.3574 9.57125 17.8078 7.5 17.8078ZM7.5 23.577C6.12125 23.577 5 22.542 5 21.2693C5 19.9966 6.12125 18.9616 7.5 18.9616C8.87875 18.9616 10 19.9966 10 21.2693C10 22.542 8.87875 23.577 7.5 23.577ZM27.0575 11.6302L27.9412 12.4459L25.4412 14.7536L24.5575 13.9379L27.0575 11.6302ZM38.75 2.80796H36.7675L34.6338 0.838362C34.145 0.387213 33.355 0.387213 32.8662 0.838362L30.7325 2.80796H1.25C0.56 2.80796 0 3.32488 0 3.96179V29.3462C0 29.9831 0.56 30.5 1.25 30.5H38.75C39.44 30.5 40 29.9831 40 29.3462V3.96179C40 3.32488 39.44 2.80796 38.75 2.80796ZM20 14.3463V18.9616H25L35 9.73097V24.7308H13.75V8.57713H26.25L20 14.3463ZM21.25 15.1621L24.1162 17.8078H21.25V15.1621ZM25.1825 17.1605L21.95 14.1767L33.75 3.28565L36.9825 6.26946L25.1825 17.1605ZM2.5 28.1923V5.11563H30L27.5 7.4233H12.5V25.8847H36.25V8.57713L37.5 7.4233V28.1923H2.5Z" fill="white"/>
</svg>
