<svg width="30" height="31" viewBox="0 0 30 31" fill="none" xmlns="http://www.w3.org/2000/svg">
<path fill-rule="evenodd" clip-rule="evenodd" d="M29.577 5.82199L27.9047 5.42736L23.385 9.92271L20.825 7.31472L25.2332 2.68854L24.8473 0.989921C23.9157 0.678185 22.9414 0.513216 21.9592 0.500923C20.8878 0.484441 19.8244 0.688862 18.8354 1.10145C17.8804 1.53385 17.0172 2.14541 16.2925 2.90302C15.4859 3.66742 14.847 4.59136 14.4165 5.6161C13.5877 7.65548 13.5877 9.93797 14.4165 11.9774C9.9467 16.3762 5.53461 20.8333 1.18137 25.3476C0.731117 25.9374 0.516713 26.673 0.572458 27.413C0.616394 28.2088 0.97418 28.9547 1.56729 29.4869C1.83315 29.7764 2.15047 30.0167 2.50424 30.1904C2.86872 30.3512 3.26108 30.4435 3.65773 30.4628C4.33525 30.4499 4.98489 30.1925 5.48874 29.74C8.80771 26.6151 15.1669 20.196 18.7796 16.4341C19.7595 16.8502 20.8122 17.0647 21.8756 17.0625C22.9461 17.0617 24.0055 16.8462 24.9914 16.4288C25.9772 16.0115 26.8694 15.4007 27.6152 14.6325C29.1472 13.0696 30.0029 10.9663 29.9972 8.77742C30.022 7.77578 29.88 6.777 29.577 5.82199ZM4.1916 28.2194C4.10907 28.2927 4.0096 28.3443 3.90215 28.3695C3.79645 28.3878 3.68839 28.3878 3.58269 28.3695C3.47186 28.3526 3.3663 28.3108 3.27395 28.2473C3.17484 28.1892 3.09104 28.1083 3.02953 28.0113C2.72936 27.7046 2.44849 27.1213 2.72936 26.7931C5.66669 23.6683 11.715 17.5601 15.4971 13.8261C15.7115 14.1092 15.9474 14.3795 16.2004 14.6325C16.4534 14.8963 16.7256 15.1408 17.0151 15.3639C13.3574 19.1172 7.3905 25.1524 4.1916 28.2194ZM28.029 8.77742C28.0333 10.4181 27.3944 11.9945 26.2452 13.1698C25.0984 14.2951 23.556 14.9255 21.9496 14.9255C20.3431 14.9255 18.8008 14.2951 17.654 13.1698C16.8135 12.2924 16.2394 11.1943 15.9983 10.0032C15.7573 8.81218 15.8593 7.57714 16.2925 6.44182C16.5809 5.66914 17.0282 4.96561 17.6054 4.37672C18.1827 3.78783 18.8771 3.32669 19.6437 3.02312C20.3716 2.71837 21.153 2.56232 21.9421 2.56415H22.4867L18.591 6.58122V8.07395L22.6539 12.1189H24.069L28.029 8.22409V8.77742ZM4.84981 12.6916H8.13234L9.64388 14.2293L11.0975 12.7838L9.67176 11.3297V11.2374L9.79397 7.70077L9.32228 6.76353L3.19033 2.72715L1.9232 2.8687L0.141507 4.68958L0 5.97427L3.94074 12.2326L4.84981 12.6916ZM2.8237 4.9019L7.785 8.17047L7.70139 10.579H5.3944L2.1955 5.51315L2.8237 4.9019ZM18.0571 19.8292L19.5022 18.3858L26.1616 25.2168C26.7225 25.8065 27.0353 26.5893 27.0353 27.4033C27.0353 28.2173 26.7225 29.0002 26.1616 29.5899C25.7398 30.023 25.1974 30.3191 24.6051 30.4396C24.0127 30.5601 23.3978 30.4994 22.8404 30.2654C22.4847 30.1076 22.1657 29.8776 21.9035 29.5899L15.1669 22.7203L16.6227 21.2662L23.3379 28.1164C23.4282 28.2161 23.5405 28.2932 23.6659 28.3416C23.9127 28.4419 24.1888 28.4419 24.4356 28.3416C24.561 28.2931 24.6733 28.216 24.7636 28.1164C24.8575 28.0234 24.9306 27.9116 24.978 27.7883C25.0272 27.6624 25.0534 27.5288 25.0552 27.3937C25.0531 27.2588 25.0277 27.1253 24.9802 26.999C24.9327 26.8757 24.8596 26.7639 24.7658 26.6709L18.0571 19.8292Z" fill="white"/>
</svg>
